<svg id="_ÎÓÈ_1" data-name="—ÎÓÈ_1" xmlns="http://www.w3.org/2000/svg" viewBox="0 0 2000 2000"><defs><style>.cls-1{fill:#fff;}.cls-2{fill:#b22025;}.cls-3{fill:#60af46;}.cls-4{fill:#359244;}.cls-5{fill:#22783c;}.cls-6{fill:#e63d3b;}.cls-7{fill:#f3716d;}.cls-8{fill:#f37e80;}.cls-9{fill:#ce2b37;}</style></defs><rect class="cls-1" width="2000" height="2000"/><rect class="cls-2" x="447.19" y="1006.55" width="1105.61" height="65.85"/><path class="cls-3" d="M721,520.93,535.35,590.2c-15.59,2.67-15.8,23.93,0,23.65C736.69,610.33,847.58,679,917,737.7h83V563.53C906.49,552.23,814,505.71,721,520.93Z"/><path class="cls-4" d="M816.79,670.8C858,691.53,890.52,715.34,917,737.7h83V563.53c-40.61-4.91-81-16.46-121.4-26.71C877.57,579.8,849.34,636.46,816.79,670.8Z"/><path class="cls-4" d="M1464.65,590.2,1279,520.93c-93-15.22-185.47,31.3-279,42.6V737.7h83c69.39-58.67,180.28-127.37,381.61-123.85C1480.45,614.13,1480.24,592.87,1464.65,590.2Z"/><path class="cls-5" d="M1000,563.53V737.7h83c26.45-22.36,59-46.17,100.18-66.9-32.55-34.34-60.78-91-61.81-134C1081,547.07,1040.61,558.62,1000,563.53Z"/><path class="cls-3" d="M1051.93,461.53H948.07c-5.2,0-9.58,4.18-10.22,9.75L907.33,737.7h185.34l-30.52-266.42C1061.51,465.71,1057.13,461.53,1051.93,461.53Z"/><path class="cls-4" d="M1051.93,461.53h-6.18l-45.6,27A23,23,0,0,0,989.3,505.8L962.73,737.7h129.94l-30.52-266.42C1061.51,465.71,1057.13,461.53,1051.93,461.53Z"/><path class="cls-6" d="M1201.28,646.86c-69.86-10.5-137-2.62-201.27,25.26-64.23-27.88-131.4-35.76-201.26-25.26C673,621,539,653.66,488,720.7c-50.74,68.69-71.2,157.48-69,261.34,0,0,.14,8.59.28,17a16.21,16.21,0,0,0,16.22,16H789.11c67.44,1.41,138.32,2,210.9,2s143.46-.6,210.91-2h353.66a16.24,16.24,0,0,0,16.23-16l.2-19c1.91-103-18.59-191.07-69-259.31C1461,653.66,1327.07,621,1201.28,646.86Z"/><path class="cls-7" d="M954.86,656,986.1,801.15c3.22,15,24.58,15,27.8,0L1045.14,656A363.8,363.8,0,0,0,1000,672.12,363.57,363.57,0,0,0,954.86,656Z"/><path class="cls-8" d="M667.76,758.42c-9.43-44.82-67.19-59.74-95.78-24l-.58.72C531.74,780.55,508.66,833.26,501,892.8c-4.15,32.45,21.83,61,54.55,61h85.64a54.88,54.88,0,0,0,53.7-66.18Z"/><path class="cls-9" d="M1220.34,643.44c34,16.33,61.77,38.69,79.51,65.93,34.63,54.75,55.12,120.47,63.93,195.24a65.83,65.83,0,0,0,65.29,58.27h152c-.58-95.63-21.49-177.76-69.08-242.18C1463.58,657,1340.36,624.41,1220.34,643.44Z"/><path class="cls-6" d="M1564.37,1063.66H435.63a16.3,16.3,0,0,0-16.22,17c9.9,247.82,155.65,457.77,389.11,457.77h383c233.46,0,379.21-210,389.11-457.77A16.3,16.3,0,0,0,1564.37,1063.66Z"/><path class="cls-9" d="M1327,1189.76c-52.41,174.06-181.14,302.07-363.41,302.07H632.46c50.94,29.75,110,46.64,176.06,46.64h383c221.71,0,364.23-189.37,386.5-420.68H1423.17A100.62,100.62,0,0,0,1327,1189.76Z"/><path class="cls-1" d="M1036.39,881H963.61a5.14,5.14,0,0,0-4.71,7.17l36.39,84a5.13,5.13,0,0,0,9.42,0l36.39-84A5.14,5.14,0,0,0,1036.39,881Z"/><rect class="cls-1" x="654.83" y="1145.19" width="21.77" height="61.21" rx="7.81"/><rect class="cls-1" x="768.31" y="1145.19" width="21.77" height="61.21" rx="7.81"/><rect class="cls-1" x="881.8" y="1145.19" width="21.77" height="61.21" rx="7.81"/><rect class="cls-1" x="1108.76" y="1145.19" width="21.77" height="61.21" rx="7.81"/><rect class="cls-1" x="1222.25" y="1145.19" width="21.77" height="61.21" rx="7.81"/><rect class="cls-1" x="1335.73" y="1145.19" width="21.77" height="61.21" rx="7.81"/><rect class="cls-1" x="539.15" y="1103.6" width="47.14" height="102.8" rx="7.81"/><rect class="cls-1" x="976.43" y="1103.6" width="47.14" height="102.8" rx="7.81"/><rect class="cls-1" x="1413.71" y="1103.6" width="47.14" height="102.8" rx="7.81"/></svg>