<?xml version="1.0" standalone="no"?>
<!DOCTYPE svg PUBLIC "-//W3C//DTD SVG 20010904//EN"
 "http://www.w3.org/TR/2001/REC-SVG-20010904/DTD/svg10.dtd">
<svg version="1.0" xmlns="http://www.w3.org/2000/svg"
 width="700.000000pt" height="700.000000pt" viewBox="0 0 700.000000 700.000000"
 preserveAspectRatio="xMidYMid meet">
<metadata>
Created by potrace 1.14, written by Peter Selinger 2001-2017
</metadata>
<g transform="translate(0.000000,700.000000) scale(0.100000,-0.100000)"
fill="#000000" stroke="none">
<path d="M3291 5358 c-4 -13 -14 -80 -21 -150 -7 -71 -17 -128 -22 -128 -5 0
-46 9 -91 20 -291 69 -393 84 -534 77 l-108 -5 -330 -125 c-181 -69 -334 -132
-339 -140 -23 -37 -3 -44 146 -51 78 -4 184 -12 233 -17 100 -12 306 -53 330
-66 9 -5 -31 -9 -103 -11 -331 -5 -618 -118 -748 -294 -117 -159 -192 -368
-223 -618 -13 -102 -14 -360 -2 -379 5 -8 26 -17 47 -20 l39 -6 3 -81 3 -80
-43 -10 c-62 -13 -66 -32 -45 -217 84 -749 501 -1288 1097 -1419 105 -23 107
-23 910 -23 861 0 859 0 1040 52 366 104 680 413 854 838 78 191 127 412 142
632 8 118 3 130 -58 139 l-39 7 3 81 3 81 39 6 c21 3 42 12 47 20 18 28 13
295 -7 437 -38 265 -150 513 -285 636 -143 129 -371 206 -669 224 l-115 7 105
23 c160 34 311 52 455 52 72 0 136 4 143 9 8 4 12 20 10 36 -3 27 -15 32 -352
157 l-349 129 -116 0 c-129 0 -220 -14 -437 -66 -81 -19 -149 -33 -152 -31 -2
3 -11 65 -19 138 -9 73 -20 139 -26 146 -7 9 -61 12 -208 12 -198 0 -200 0
-208 -22z m351 -1450 c7 -21 -125 -318 -142 -318 -17 0 -149 297 -142 318 3 9
44 12 142 12 98 0 139 -3 142 -12z m-1597 -948 l0 -175 -75 0 -75 0 -3 165
c-1 90 0 170 3 178 3 9 24 12 77 10 l73 -3 0 -175z m1530 0 l0 -175 -75 0 -75
0 -3 165 c-1 90 0 170 3 178 3 9 24 12 77 10 l73 -3 0 -175z m1530 0 l0 -175
-75 0 -75 0 -3 165 c-1 90 0 170 3 178 3 9 24 12 77 10 l73 -3 0 -175z m-2740
-75 l0 -100 -35 0 -35 0 -3 89 c-4 111 -1 118 40 114 l33 -3 0 -100z m399 89
c9 -24 7 -167 -3 -182 -5 -8 -21 -12 -37 -10 l-29 3 -3 89 c-2 49 -1 95 2 103
8 19 62 17 70 -3z m391 -89 l0 -100 -32 -3 -33 -3 0 106 0 106 33 -3 32 -3 0
-100z m800 0 l0 -100 -35 0 -35 0 -3 89 c-4 111 -1 118 40 114 l33 -3 0 -100z
m399 83 c8 -30 7 -137 0 -166 -5 -19 -12 -23 -38 -20 l-31 3 -3 89 c-2 49 -1
95 2 103 3 7 18 13 35 13 21 0 30 -6 35 -22z m391 -83 l0 -100 -29 -3 c-39 -5
-46 10 -46 100 0 99 4 110 44 106 l31 -3 0 -100z"/>
</g>
</svg>
